<?xml version="1.0" standalone="no"?>
<!DOCTYPE svg PUBLIC "-//W3C//DTD SVG 20010904//EN"
 "http://www.w3.org/TR/2001/REC-SVG-20010904/DTD/svg10.dtd">
<svg version="1.0" xmlns="http://www.w3.org/2000/svg"
 width="712.000000pt" height="706.000000pt" viewBox="0 0 712.000000 706.000000"
 preserveAspectRatio="xMidYMid meet">
<metadata>
Created by potrace 1.16, written by Peter Selinger 2001-2019
</metadata>
<g transform="translate(0.000000,706.000000) scale(0.100000,-0.100000)"
fill="#000000" stroke="none">
<path d="M0 3530 l0 -3530 3560 0 3560 0 0 3530 0 3530 -3560 0 -3560 0 0
-3530z m2880 2740 l0 -370 -740 0 -740 0 0 370 0 370 740 0 740 0 0 -370z
m1540 0 l0 -370 -370 0 -370 0 0 370 0 370 370 0 370 0 0 -370z m780 -760 l0
-370 -370 0 -370 0 0 370 0 370 370 0 370 0 0 -370z m-3060 -800 l0 -370 -370
0 -370 0 0 370 0 370 370 0 370 0 0 -370z m2300 0 l0 -370 -750 0 -750 0 0
370 0 370 750 0 750 0 0 -370z m800 -760 l0 -370 -370 0 -370 0 0 370 0 370
370 0 370 0 0 -370z m780 -740 l0 -370 -370 0 -370 0 0 370 0 370 370 0 370 0
0 -370z m-1554 -1624 c11 -11 14 -48 14 -166 0 -118 -3 -155 -14 -166 -20 -19
-152 -19 -172 0 -19 20 -21 309 -1 331 17 20 153 20 173 1z m-2506 -276 l0
-70 -120 0 c-73 0 -120 -4 -120 -10 0 -5 -7 -10 -16 -10 -41 0 -44 -17 -44
-290 0 -213 -3 -264 -14 -276 -20 -19 -152 -19 -172 0 -11 12 -14 67 -14 306
l0 291 45 44 c24 25 51 45 60 45 8 0 15 5 15 10 0 6 18 10 40 10 22 0 40 5 40
10 0 6 57 10 150 10 l150 0 0 -70z m880 60 c0 -5 18 -10 40 -10 22 0 40 -4 40
-10 0 -5 8 -10 18 -10 10 0 24 -9 32 -20 8 -11 22 -20 32 -20 11 0 18 -7 18
-20 0 -11 5 -20 10 -20 6 0 10 -9 10 -20 0 -11 5 -20 10 -20 6 0 10 -77 10
-210 0 -133 -4 -210 -10 -210 -5 0 -10 -9 -10 -20 0 -11 -4 -20 -10 -20 -5 0
-10 -9 -10 -20 0 -13 -7 -20 -18 -20 -10 0 -24 -9 -32 -20 -8 -11 -22 -20 -32
-20 -10 0 -18 -4 -18 -10 0 -5 -18 -10 -40 -10 -22 0 -40 -4 -40 -10 0 -6
-107 -10 -300 -10 -193 0 -300 4 -300 10 0 6 -18 10 -40 10 -22 0 -40 5 -40
10 0 6 -7 10 -15 10 -26 0 -105 86 -105 115 0 14 -4 25 -10 25 -6 0 -10 70
-10 190 0 120 4 190 10 190 6 0 10 11 10 25 0 29 79 115 105 115 8 0 15 5 15
10 0 6 18 10 40 10 22 0 40 5 40 10 0 6 107 10 300 10 193 0 300 -4 300 -10z
m506 -4 c11 -12 14 -60 14 -256 l0 -241 25 -24 c13 -14 31 -25 40 -25 8 0 15
-4 15 -10 0 -6 97 -10 270 -10 l270 0 0 265 0 266 25 24 c20 21 34 25 85 25
51 0 65 -4 85 -25 l25 -24 0 -346 c0 -223 -4 -345 -10 -345 -5 0 -10 -16 -10
-35 0 -29 -9 -44 -45 -80 -24 -25 -51 -45 -60 -45 -8 0 -15 -4 -15 -10 0 -5
-18 -10 -40 -10 -22 0 -40 -4 -40 -10 0 -6 -65 -10 -176 -10 -198 0 -204 2
-204 70 0 67 9 70 174 70 91 0 146 4 146 10 0 6 7 10 16 10 20 0 44 24 44 44
0 14 -34 16 -300 16 -193 0 -300 4 -300 10 0 6 -18 10 -40 10 -22 0 -40 5 -40
10 0 6 -11 10 -25 10 -29 0 -95 59 -95 85 0 8 -4 15 -10 15 -16 0 -13 547 3
565 17 20 153 20 173 1z m1754 -56 l0 -70 -150 0 c-93 0 -150 -4 -150 -10 0
-5 -7 -10 -16 -10 -25 0 -44 -26 -44 -60 0 -34 19 -60 44 -60 9 0 16 -4 16
-10 0 -6 90 -10 250 -10 160 0 250 -4 250 -10 0 -5 18 -10 40 -10 22 0 40 -4
40 -10 0 -5 7 -10 15 -10 9 0 36 -20 60 -45 l45 -44 0 -86 c0 -50 -4 -85 -10
-85 -5 0 -10 -7 -10 -15 0 -20 -65 -85 -85 -85 -8 0 -15 -4 -15 -10 0 -5 -22
-10 -50 -10 -27 0 -50 -4 -50 -10 0 -6 -125 -10 -356 -10 -397 0 -384 -2 -384
70 0 72 -11 70 364 70 217 0 336 4 336 10 0 6 7 10 16 10 25 0 44 26 44 60 0
34 -19 60 -44 60 -9 0 -16 5 -16 10 0 6 -93 10 -260 10 -167 0 -260 4 -260 10
0 6 -13 10 -30 10 -16 0 -30 5 -30 10 0 6 -7 10 -15 10 -20 0 -85 65 -85 85 0
8 -4 15 -10 15 -6 0 -10 33 -10 80 0 47 4 80 10 80 6 0 10 7 10 15 0 20 65 85
85 85 8 0 15 5 15 10 0 6 14 10 30 10 17 0 30 5 30 10 0 6 70 10 190 10 l190
0 0 -70z"/>
<path d="M2320 1230 c0 -5 -9 -10 -20 -10 -11 0 -20 -4 -20 -10 0 -5 -9 -10
-20 -10 -13 0 -20 -7 -20 -20 0 -11 -4 -20 -10 -20 -6 0 -10 -57 -10 -150 0
-93 4 -150 10 -150 6 0 10 -9 10 -20 0 -13 7 -20 20 -20 11 0 20 -4 20 -10 0
-5 9 -10 20 -10 11 0 20 -4 20 -10 0 -6 80 -10 220 -10 140 0 220 4 220 10 0
6 9 10 20 10 11 0 20 5 20 10 0 6 9 10 20 10 13 0 20 7 20 20 0 11 5 20 10 20
6 0 10 57 10 150 0 93 -4 150 -10 150 -5 0 -10 9 -10 20 0 13 -7 20 -20 20
-11 0 -20 5 -20 10 0 6 -9 10 -20 10 -11 0 -20 5 -20 10 0 6 -80 10 -220 10
-140 0 -220 -4 -220 -10z"/>
</g>
</svg>
